<?xml version="1.0" standalone="no"?>
<!DOCTYPE svg PUBLIC "-//W3C//DTD SVG 20010904//EN"
 "http://www.w3.org/TR/2001/REC-SVG-20010904/DTD/svg10.dtd">
<svg version="1.0" xmlns="http://www.w3.org/2000/svg"
 width="50.000000pt" height="50.000000pt" viewBox="0 0 50.000000 50.000000"
 preserveAspectRatio="xMidYMid meet">

<g transform="translate(0.000000,50.000000) scale(0.100000,-0.100000)"
fill="#000000" stroke="none">
<path d="M195 475 c-21 -17 -43 -24 -72 -25 l-43 0 0 -39 c0 -34 -6 -44 -40
-71 l-40 -32 0 -154 0 -154 250 0 250 0 0 154 0 154 -40 32 c-34 27 -40 37
-40 71 0 39 0 39 -41 39 -28 0 -51 8 -73 25 -41 32 -73 32 -111 0z m91 -10
c17 -13 15 -14 -36 -14 -51 0 -53 1 -36 14 11 8 27 15 36 15 9 0 25 -7 36 -15z
m114 -134 l0 -100 -32 -24 -32 -25 -31 24 c-40 30 -70 30 -110 0 l-31 -24 -32
25 -32 24 0 100 0 99 150 0 150 0 0 -99z m-320 -36 l0 -46 -31 23 -30 23 26
22 c14 13 28 23 31 23 2 0 4 -20 4 -45z m379 21 l22 -24 -30 -22 -31 -21 0 45
c0 52 7 56 39 22z m-321 -145 c1 -4 -25 -28 -58 -54 l-60 -47 0 101 0 100 58
-47 c31 -25 58 -49 60 -53z m342 -1 l0 -100 -60 47 c-33 26 -59 50 -58 54 3 6
109 97 116 98 1 1 2 -44 2 -99z m-109 -40 c57 -45 105 -87 107 -95 3 -13 -31
-15 -228 -15 -197 0 -231 2 -228 15 4 20 206 175 228 175 10 0 64 -36 121 -80z"/>
<path d="M240 370 c0 -27 -3 -30 -30 -30 -16 0 -30 -4 -30 -10 0 -5 14 -10 30
-10 27 0 30 -3 30 -30 0 -16 5 -30 10 -30 6 0 10 14 10 30 0 27 3 30 30 30 17
0 30 5 30 10 0 6 -13 10 -30 10 -27 0 -30 3 -30 30 0 17 -4 30 -10 30 -5 0
-10 -13 -10 -30z"/>
</g>
</svg>
